<?xml version="1.0" encoding="iso-8859-1"?>
<!-- Generator: Adobe Illustrator 19.0.0, SVG Export Plug-In . SVG Version: 6.00 Build 0)  -->
<!-- License: CC0. Made by SVG Repo: https://www.svgrepo.com/svg/286366/vespa-scooter -->
<svg version="1.1" id="Layer_1" xmlns="http://www.w3.org/2000/svg" xmlns:xlink="http://www.w3.org/1999/xlink" x="0px" y="0px"
	 viewBox="0 0 512.001 512.001" style="enable-background:new 0 0 512.001 512.001;" xml:space="preserve">
<g>
	<g>
		<path d="M466.62,302.832c-7.001-53.738-21.676-101.999-31.991-131.309c2.721,0.591,5.541,0.911,8.436,0.911h13.898
			c5.771,0,10.449-4.678,10.449-10.449v-58.539c0-5.771-4.678-10.449-10.449-10.449h-13.898c-12.87,0-24.323,6.156-31.586,15.674
			h-81.296c-5.771,0-10.449,4.678-10.449,10.449v27.189c0,5.771,4.678,10.449,10.449,10.449h46.163
			c7.847,21.264,30.024,91.78-0.606,139.199c-20.624,31.927-45.088,41.729-60.183,37.275c-8.855-2.611-13.933-9.815-13.933-19.764
			V250.01c0-28.986-12.673-47.165-35.178-51.281v-28.15c0-5.771-4.678-10.449-10.449-10.449H138.464
			c-5.771,0-10.449,4.678-10.449,10.449v37.705c0,2.256,0.722,4.339,1.938,6.048c-20.518,8.225-41.458,20.535-62.922,38.966
			c-20.034,17.203-34.188,37.807-40.932,59.584c-5.973,19.286-5.942,38.872,0.087,55.147c7.35,19.84,23.007,32.165,40.862,32.165
			h18.859c5.119,37.709,37.506,66.873,76.596,66.873c39.09,0,71.476-29.164,76.596-66.873h102.738c1.044,0,2.06-0.167,3.03-0.462
			c0.974,0.3,2.006,0.462,3.078,0.462h0.206c5.119,37.709,37.506,66.873,76.596,66.873c39.09,0,71.476-29.164,76.596-66.873h0.2
			c5.668,0,10.302-4.519,10.446-10.187C512.056,387.361,513.003,327.134,466.62,302.832z M443.065,113.895h3.449v37.64h-3.449
			c-10.378,0-18.82-8.443-18.82-18.82C424.244,122.337,432.687,113.895,443.065,113.895z M340.632,135.862v-6.291h62.715v6.291
			H340.632z M148.913,197.836v-16.807h96.635v16.799c-2.658-0.002-5.322,0-7.989,0.009h-88.646V197.836z M162.503,446.17
			c-27.541,0-50.522-19.84-55.438-45.975h17.137c4.6,16.839,20.023,29.257,38.3,29.257s33.701-12.417,38.3-29.257h17.137
			C213.026,426.33,190.044,446.17,162.503,446.17z M146.876,400.195h31.256c-3.378,5.036-9.121,8.359-15.627,8.359
			S150.254,405.231,146.876,400.195z M335.92,379.302H67.048v-0.004c-3.066,0-6.003-0.818-8.72-2.33
			c3.28-7.8,7.442-15.299,12.407-22.307c23.839-33.643,63.767-53.728,106.808-53.728c16.099,0,31.791,2.758,46.639,8.2
			c5.419,1.986,11.421-0.798,13.406-6.216c1.985-5.419-0.798-11.421-6.216-13.406c-17.16-6.287-35.27-9.475-53.829-9.475
			c-49.806,0-96.108,23.38-123.859,62.545c-3.329,4.698-6.346,9.591-9.051,14.627c-6.662-23.416,1.738-58.621,36.012-88.052
			c54.585-46.871,104.59-50.234,156.773-50.419h18.578c0.001,0,0.001,0,0.002,0h0.131c11.451,0,24.597,3.555,24.597,31.278v63.459
			c0,19.294,11.082,34.548,28.921,39.809c12.8,3.776,27.714,1.787,41.999-5.594c15.28-7.895,29.682-21.861,41.649-40.387
			c32.984-51.062,15.399-120.57,5.26-150.537h8.223c7.495,18.906,29.348,77.934,38.621,145.031
			C379.589,318.977,346.026,363.525,335.92,379.302z M424.748,446.17c-27.541,0-50.522-19.84-55.438-45.975h17.137
			c4.6,16.839,20.023,29.257,38.3,29.257s33.701-12.417,38.3-29.257h17.137C475.27,426.33,452.289,446.17,424.748,446.17z
			 M409.121,400.195h31.255c-3.378,5.036-9.121,8.359-15.627,8.359S412.499,405.232,409.121,400.195z M361.731,379.298
			c14.546-18.09,44.606-47.126,94.038-58.536c25.954,12.963,32.854,42.776,34.679,58.536H361.731z"/>
	</g>
</g>
<g>
	<g>
		<path d="M261.795,304.7c-0.006-0.004-0.087-0.056-0.094-0.061c-4.844-3.119-11.279-1.714-14.409,3.124
			c-3.13,4.839-1.728,11.313,3.104,14.452c0.011,0.007,0.067,0.044,0.079,0.051c1.749,1.126,3.705,1.664,5.641,1.664
			c3.429,0,6.788-1.69,8.787-4.787C268.032,314.301,266.636,307.834,261.795,304.7z"/>
	</g>
</g>
<g>
	<g>
		<path d="M251.315,44.935H113.566c-5.771,0-10.449,4.678-10.449,10.449s4.679,10.449,10.449,10.449h137.749
			c5.771,0,10.449-4.678,10.449-10.449S257.086,44.935,251.315,44.935z"/>
	</g>
</g>
<g>
	<g>
		<path d="M77.948,44.935h-0.123c-5.771,0-10.449,4.678-10.449,10.449s4.677,10.449,10.448,10.449h0.124
			c5.771,0,10.449-4.678,10.449-10.449S83.719,44.935,77.948,44.935z"/>
	</g>
</g>
<g>
	<g>
		<path d="M227.913,77.261H107.275c-5.771,0-10.449,4.678-10.449,10.449c0,5.771,4.678,10.449,10.449,10.449h120.638
			c5.771,0,10.449-4.678,10.449-10.449C238.362,81.938,233.684,77.261,227.913,77.261z"/>
	</g>
</g>
<g>
	<g>
		<path d="M73.142,77.261H10.449C4.678,77.261,0,81.938,0,87.709c0,5.771,4.678,10.449,10.449,10.449h62.693
			c5.771,0,10.449-4.678,10.449-10.449C83.591,81.938,78.913,77.261,73.142,77.261z"/>
	</g>
</g>
</svg>
